# xmcd
#
# Track frame offsets:
#	150
#	17720
#	37263
#	58312
#	83554
#	97900
#	117930
#	136237
#	151853
#	173307
#	188037
#	204916
#	223950
#	241624
#	259501
#	275951
#
# Disc length: 3942
#
# Revision: 1
# Processed by: cddbd v1.5.2PL0 Copyright (c) Steve Scherf et al.
# Submitted via: kJams Pro (development) 1.0patch49.66
#
DISCID=d50f6410
DTITLE=Ronnie Milsap - CB 5106−3
DYEAR=1975
DGENRE=Country
TTITLE0=Ronnie Milsap - Happy Happy Birthday Baby
TTITLE1=Ronnie Milsap - Inside
TTITLE2=Ronnie Milsap - How Do I Turn You On
TTITLE3=Ronnie Milsap - Still Losing You
TTITLE4=Ronnie Milsap - Snap Your Fingers
TTITLE5=Ronnie Milsap - Are You Lovin' Me Like I'm Lovin' You
TTITLE6=Ronnie Milsap - In No Time At All
TTITLE7=Ronnie Milsap - A Woman In Love
TTITLE8=Ronnie Milsap - Where Do The Nights Go
TTITLE9=Ronnie Milsap - Don't You Ever Get Tired (Of Hurting Me)
TTITLE10=Ronnie Milsap - In Love
TTITLE11=Ronnie Milsap - Old Folks
TTITLE12=Ronnie Milsap - Livin' On Love
TTITLE13=Ronnie Milsap - Make No Mistake, She's Mine
TTITLE14=Ronnie Milsap - Time, Love, and Money
TTITLE15=Ronnie Milsap - Since I Don't Haved You
EXTD=
EXTT0=
EXTT1=
EXTT2=
EXTT3=
EXTT4=
EXTT5=
EXTT6=
EXTT7=
EXTT8=
EXTT9=
EXTT10=
EXTT11=
EXTT12=
EXTT13=
EXTT14=
EXTT15=
PLAYORDER=
